<?xml version="1.0" standalone="no"?><!DOCTYPE svg PUBLIC "-//W3C//DTD SVG 1.1//EN" "http://www.w3.org/Graphics/SVG/1.1/DTD/svg11.dtd"><svg t="1590548929139" class="icon" viewBox="0 0 1024 1024" version="1.1" xmlns="http://www.w3.org/2000/svg" p-id="2294" xmlns:xlink="http://www.w3.org/1999/xlink" width="128" height="128"><defs><style type="text/css"></style></defs><path d="M221.248 603.456c7.296 21.888 21.952 36.544 43.904 36.544s36.544-14.656 43.904-36.544l29.248-402.304C338.304 157.248 301.696 128 265.152 128 221.248 128 192 164.544 192 208.448l29.248 395.008z m43.904 109.696C221.248 713.152 192 742.4 192 786.304c0 43.84 29.248 73.152 73.152 73.152 43.904 0 73.152-29.312 73.152-73.152 0-43.904-29.248-73.152-73.152-73.152zM678.4 603.456c7.296 21.888 21.952 36.544 43.904 36.544s36.544-14.656 43.84-36.544l29.312-402.304c0-43.904-36.608-73.152-73.152-73.152-43.904 0-73.152 36.544-73.152 80.448L678.4 603.52z m43.904 109.696c-43.904 0-73.152 29.248-73.152 73.152 0 43.84 29.248 73.152 73.152 73.152 43.84 0 73.152-29.312 73.152-73.152 0-43.904-29.312-73.152-73.152-73.152z" fill="#F7B500" p-id="2295"></path></svg>