<?xml version="1.0" standalone="no"?><!DOCTYPE svg PUBLIC "-//W3C//DTD SVG 1.1//EN" "http://www.w3.org/Graphics/SVG/1.1/DTD/svg11.dtd"><svg t="1589769163453" class="icon" viewBox="0 0 1024 1024" version="1.1" xmlns="http://www.w3.org/2000/svg" p-id="2332" xmlns:xlink="http://www.w3.org/1999/xlink" width="128" height="128"><defs><style type="text/css"></style></defs><path d="M808 712l-48-108.8V448c0-102.4-65.6-195.2-160-232-3.2-44.8-41.6-80-88-80s-83.2 35.2-88 80c-96 36.8-160 129.6-160 232v155.2l-48 108.8c-6.4 14.4-4.8 30.4 3.2 43.2 8 12.8 22.4 20.8 38.4 20.8h508.8c16 0 30.4-8 38.4-20.8s9.6-30.4 3.2-43.2z m-547.2 16l51.2-115.2V448c0-88 59.2-166.4 144-192l19.2-6.4-3.2-20.8V224c0-22.4 17.6-40 40-40s40 17.6 40 40v6.4l-3.2 20.8 19.2 6.4c84.8 25.6 144 104 144 192v164.8l51.2 115.2H260.8zM512 880c44.8 0 80-35.2 80-80H432c0 44.8 35.2 80 80 80z" p-id="2333"></path></svg>