<?xml version="1.0" standalone="no"?><!DOCTYPE svg PUBLIC "-//W3C//DTD SVG 1.1//EN" "http://www.w3.org/Graphics/SVG/1.1/DTD/svg11.dtd"><svg t="1590549028309" class="icon" viewBox="0 0 1024 1024" version="1.1" xmlns="http://www.w3.org/2000/svg" p-id="3979" xmlns:xlink="http://www.w3.org/1999/xlink" width="128" height="128"><defs><style type="text/css"></style></defs><path d="M512.306 97.79v58.382c0.73 0 2.068 0.609 2.676 1.095 0.365 0.73 0.608 1.46 0.973 2.068l99.615 202.392c8.27 16.784 23.961 28.46 42.327 31.745l222.582 38.921c0.73 0.122 1.582 0.244 2.311 0.365 0.365 0 0.973 0.487 1.095 0.852 0.243 1.094 0.608 2.31 0.973 3.405 0.243 0.73 0.973 2.92-1.095 5.352L724.55 592.458c-14.474 13.623-21.042 33.691-17.393 53.152l40.503 217.96v0.122c0.365 2.19-1.46 4.014-2.554 4.865-0.244 0.244-0.487 0.365-0.73 0.608-0.973-0.243-2.19-0.73-3.527-1.337L538.457 766.632c-8.271-4.136-17.15-6.203-26.15-6.203-8.88 0-17.758 2.067-25.908 6.081L282.426 867.706c-0.608 0.243-1.094 0.608-1.702 0.851-0.122 0-0.609 0.244-1.338 0.244-0.73 0-1.338-0.122-1.46-0.244-1.338-1.094-2.432-3.284-2.554-4.378v-0.122l42.084-218.082c3.77-19.704-2.798-40.016-17.515-53.76L140.728 443.948c-1.46-1.703-2.19-4.987-2.068-6.933 0.608-1.338 1.216-1.946 1.46-2.189 0.121-0.122 0.365-0.243 1.094-0.365 1.095-0.122 2.19-0.243 3.163-0.486l222.582-40.503c18.244-3.284 33.813-15.082 41.962-31.624L508.414 159.7c1.338-2.554 3.406-3.406 3.77-3.406V97.79m0.122 0c-23.352 0-45.124 13.988-56.07 35.76L356.62 335.94l-222.583 40.503c-24.934 3.162-43.543 20.19-51.327 43.543-6.204 21.772 0 48.287 17.15 65.437l160.307 149.604-42.084 217.96c-4.622 23.354 6.203 48.288 24.934 62.275 10.46 7.906 23.475 11.798 36.368 11.798 10.095 0 20.069-2.432 28.948-7.176l203.972-101.196 202.392 101.196c9.366 4.622 20.19 7.784 29.556 7.784 13.988 0 26.515-4.622 35.76-12.406 18.73-13.987 29.555-37.34 24.933-62.274l-40.502-217.96 160.308-151.065c17.15-17.15 23.352-42.083 15.568-65.436-6.203-23.353-26.515-40.503-49.868-43.544L667.87 336.062 568.255 133.67c-9.244-21.772-32.597-35.88-55.95-35.88z" fill="#9d9d9d" p-id="3980"></path></svg>