<?xml version="1.0" standalone="no"?><!DOCTYPE svg PUBLIC "-//W3C//DTD SVG 1.1//EN" "http://www.w3.org/Graphics/SVG/1.1/DTD/svg11.dtd"><svg t="1589774739241" class="icon" viewBox="0 0 1024 1024" version="1.1" xmlns="http://www.w3.org/2000/svg" p-id="3016" xmlns:xlink="http://www.w3.org/1999/xlink" width="128" height="128"><defs><style type="text/css"></style></defs><path d="M890.88 845.05088v-327.61344c0-34.944-18.69312-65.40288-47.42656-81.02912-12.91776-7.28064-26.97728-11.45344-43.01824-11.45344H757.76V281.6a15.36 15.36 0 0 0-15.36-15.36h-40.96a15.36 15.36 0 0 0-15.36 15.36v143.36h-138.24V281.6a15.36 15.36 0 0 0-15.36-15.36h-40.96a15.36 15.36 0 0 0-15.36 15.36v143.36H343.04V281.6a15.36 15.36 0 0 0-15.36-15.36h-40.96a15.36 15.36 0 0 0-15.36 15.36v143.36h-47.80032c-16.04096 0-30.09536 4.16768-43.01312 11.44832C151.808 452.02944 133.12 482.49344 133.12 517.43744V844.8h-5.12c-28.16 0-51.2 23.04-51.2 51.2s23.04 51.2 51.2 51.2h759.66464c28.16 0 50.34496-23.04 50.34496-51.2-0.00512-26.496-21.5296-48.44544-47.1296-50.94912zM194.56 671.08352c0 0.27136 3.45088 0.45568 5.57568 0.45568 52.78208 0 77.99808-82.82112 104.07936-82.82112s51.73248 82.82112 103.88992 82.82112 78.02368-82.82112 104.10496-82.82112 52.05504 82.82112 104.0384 82.82112c52.34176 0 78.36672-82.82112 104.33536-82.82112 26.19392 0 50.52928 82.82112 102.68672 82.82112 2.32448 0 6.1696-0.21504 6.1696-0.52736V747.52H194.56v-76.43648zM194.56 788.48h634.88v56.32H194.56v-56.32zM701.0816 228.04992a120.38144 120.38144 0 0 1-1.06496-16.72704c0-27.6992 18.93376-41.34912 19.27168-38.98368 2.90816 20.21376 17.58208 29.49632 17.58208 52.11136 0 5.58592-0.78848 10.40384-2.0992 14.4384-0.6912 2.11968 1.75104 3.9424 3.5584 2.64192 12.53376-8.98048 22.87616-28.14976 22.87616-61.55776 0-55.79776-37.10976-103.17312-41.84576-103.17312-5.26336 0-41.84576 45.79328-41.84576 103.17312 0 24.59136 5.8624 41.46176 13.952 52.23936 3.33312 4.43904 10.3936 1.33632 9.61536-4.16256zM493.0304 241.53088c1.81248 1.30048 4.2496-0.52224 3.5584-2.64192-1.31072-4.03456-2.0992-8.85248-2.0992-14.4384 0-22.61504 14.67392-31.8976 17.58208-52.11136 0.33792-2.36544 19.27168 11.27936 19.27168 38.98368 0 6.08256-0.35328 11.6992-1.06496 16.72704-0.77824 5.49888 6.28224 8.60672 9.61536 4.16256 8.0896-10.77248 13.952-27.648 13.952-52.23936C553.84576 122.59328 517.26336 76.8 512 76.8c-4.736 0-41.84576 47.37536-41.84576 103.17312 0 33.408 10.3424 52.57728 22.87616 61.55776zM285.6704 241.53088c1.81248 1.30048 4.2496-0.52224 3.5584-2.64192-1.31072-4.03456-2.0992-8.85248-2.0992-14.4384 0-22.61504 14.67392-31.8976 17.58208-52.11136 0.33792-2.36544 19.27168 11.27936 19.27168 38.98368 0 6.08256-0.35328 11.6992-1.06496 16.72704-0.77824 5.49888 6.28224 8.60672 9.61536 4.16256 8.0896-10.77248 13.952-27.648 13.952-52.23936C346.48576 122.59328 309.90336 76.8 304.64 76.8c-4.736 0-41.84576 47.37536-41.84576 103.17312 0 33.408 10.3424 52.57728 22.87616 61.55776z" p-id="3017"></path></svg>