<?xml version="1.0" standalone="no"?><!DOCTYPE svg PUBLIC "-//W3C//DTD SVG 1.1//EN" "http://www.w3.org/Graphics/SVG/1.1/DTD/svg11.dtd"><svg t="1589769109061" class="icon" viewBox="0 0 1024 1024" version="1.1" xmlns="http://www.w3.org/2000/svg" p-id="1586" xmlns:xlink="http://www.w3.org/1999/xlink" width="128" height="128"><defs><style type="text/css"></style></defs><path d="M104.96 852.992c-17.92-11.776-41.472-7.168-53.76 10.24-11.776 17.92-7.168 41.472 10.24 53.76 1.536 1.024 3.072 2.048 4.608 2.56L238.08 1018.88c5.632 3.072 12.288 5.12 18.944 5.12 21.504-0.512 37.888-18.432 37.376-39.936-0.512-12.8-7.168-24.064-17.92-31.232l-51.2-30.208 84.992-146.944c17.92 6.144 36.864 9.216 56.32 9.216 19.968 0 39.936-3.584 58.88-9.728 49.664-16.896 90.112-54.272 110.592-102.912l84.48-189.952-7.168 60.416c-13.312 95.232 49.152 184.32 143.36 204.288V916.48H696.32c-21.504 0-38.4 17.408-38.4 38.4s17.408 38.4 38.4 38.4h198.144c21.504 0 38.4-17.408 38.4-38.4s-17.408-38.4-38.4-38.4h-60.416v-169.472c93.184-19.456 156.16-108.032 143.872-202.24l-28.16-269.312c-2.048-19.456-18.432-34.304-38.4-34.304h-231.936c-19.968 0-36.352 14.848-38.4 34.304l-10.752 102.912-2.048-2.048-200.192-116.224a38.2464 38.2464 0 0 0-51.712 10.752L219.648 489.472c-57.856 75.776-48.128 183.808 22.528 247.808l-84.48 146.944-52.736-31.232z m609.28-535.04h162.304l4.608 46.08c-27.648 1.024-54.272 8.704-78.848 21.504-51.712 25.6-80.896 13.312-95.232 2.56l7.168-70.144z m-293.888 27.648l140.288 80.896-4.096 9.216c-36.864 11.264-76.288 11.264-112.64 0-26.624-6.656-54.272-9.728-81.408-9.728l57.856-80.384z" p-id="1587"></path><path d="M545.792 299.52c19.456 0 37.888-7.68 51.712-21.504 45.568-45.056 99.328-112.128 99.328-177.152-1.536-53.76-43.52-97.792-97.28-100.864-18.944-0.512-37.376 4.096-53.76 13.824C497.664-14.336 436.224 2.048 408.064 50.176c-9.216 15.36-13.824 33.28-13.824 51.2 0 48.128 33.28 107.008 99.84 176.128 13.312 13.824 32.256 22.016 51.712 22.016z m-50.688-222.208c7.68 0 14.848 3.584 19.456 10.24l31.232 44.032 31.232-44.032c7.68-10.752 22.528-13.312 33.28-5.632 6.144 4.608 9.728 11.776 9.728 19.456 0 28.672-27.136 72.704-73.216 119.296C491.52 162.304 471.552 120.832 471.552 100.864c0-12.8 10.752-23.552 23.552-23.552zM330.24 252.928c20.992 0.512 38.4-16.896 38.912-37.888 0-9.216-3.072-18.432-9.216-25.088L290.816 105.984c-15.36-14.848-39.424-14.848-54.784 0-12.8 12.8-14.848 33.28-4.608 48.64l69.12 83.968c7.168 9.216 18.432 14.336 29.696 14.336zM768 201.216c14.336 0 27.648-7.68 34.304-20.992l51.712-102.912c10.24-18.432 4.096-41.984-14.848-52.736s-41.984-4.096-52.736 14.848c-0.512 1.024-1.024 2.048-1.536 3.584l-51.712 102.912c-9.216 18.944-1.536 41.984 17.408 51.712 5.632 2.048 11.264 3.584 17.408 3.584z" p-id="1588"></path></svg>