<?xml version="1.0" standalone="no"?><!DOCTYPE svg PUBLIC "-//W3C//DTD SVG 1.1//EN" "http://www.w3.org/Graphics/SVG/1.1/DTD/svg11.dtd"><svg t="1589774707256" class="icon" viewBox="0 0 1024 1024" version="1.1" xmlns="http://www.w3.org/2000/svg" p-id="2027" xmlns:xlink="http://www.w3.org/1999/xlink" width="128" height="128"><defs><style type="text/css"></style></defs><path d="M219.648 36.571429a36.571429 36.571429 0 0 1 73.142857 0v125.805714a36.571429 36.571429 0 1 1-73.142857 0V36.571429zM218.258286 491.52a36.571429 36.571429 0 0 1 0-73.142857h70.656a36.571429 36.571429 0 1 1 0 73.142857h-70.656zM658.505143 36.571429a36.571429 36.571429 0 0 1 73.142857 0v125.805714a36.571429 36.571429 0 1 1-73.142857 0V36.571429zM658.505143 968.265143a292.571429 292.571429 0 1 1 0-585.142857 292.571429 292.571429 0 0 1 0 585.142857z m0-73.142857a219.428571 219.428571 0 1 0 0-438.857143 219.428571 219.428571 0 0 0 0 438.857143zM218.258286 346.550857a36.571429 36.571429 0 0 1 0-73.142857h220.891428a36.571429 36.571429 0 1 1 0 73.142857h-220.891428z" p-id="2028"></path><path d="M729.6 612.425143a36.571429 36.571429 0 1 1 43.300571 58.953143l-92.745142 68.022857a36.571429 36.571429 0 0 1-58.221715-29.476572V537.380571a36.571429 36.571429 0 1 1 73.142857 0V637.805714l34.523429-25.307428z" p-id="2029"></path><path d="M367.908571 858.697143a36.571429 36.571429 0 1 1 0 73.142857H73.142857a36.571429 36.571429 0 0 1-36.571428-36.571429V91.062857a36.571429 36.571429 0 0 1 36.571428-36.571428h805.010286a36.571429 36.571429 0 0 1 36.571428 36.571428v292.059429a36.571429 36.571429 0 1 1-73.142857 0V127.634286H109.714286v731.062857h258.194285z" p-id="2030"></path></svg>