<?xml version="1.0" standalone="no"?><!DOCTYPE svg PUBLIC "-//W3C//DTD SVG 1.1//EN" "http://www.w3.org/Graphics/SVG/1.1/DTD/svg11.dtd"><svg t="1589769676139" class="icon" viewBox="0 0 1024 1024" version="1.1" xmlns="http://www.w3.org/2000/svg" p-id="4425" xmlns:xlink="http://www.w3.org/1999/xlink" width="128" height="128"><defs><style type="text/css"></style></defs><path d="M983.45528889 21.62232889c-14.77063111-9.81902222-33.60654222-11.82151111-50.25336889-5.33048889L521.71776 177.31128889 110.2336 16.29184c-16.64455111-6.49102222-35.46112-4.48853333-50.29432889 5.33048889-14.81386667 9.81902222-23.68284445 26.16888889-23.68284444 43.67928889v675.26314667c0 21.59843555 13.44284445 40.96227555 33.88074666 49.01091555l430.57379556 168.45937778s8.87125333 2.78072889 10.49258666 3.09703111c3.51914667 0.65194667 6.99619555 1.01262222 10.51306667 1.01262222s6.99733333-0.36067555 10.45162667-1.01262222c1.64295111-0.31630222 10.49258667-3.22446222 10.49258666-3.22446222l430.53169778-168.35128889c20.54485333-8.05091555 33.96494222-27.41361778 33.96494222-48.98929778V65.30275555c0-17.5104-8.89059555-33.86026667-23.70218666-43.68042666z m-41.00323556 720.77653333l-388.36906666 151.03317333V224.57230222l388.36906666-151.03203555v668.85859555z m-64.72817778-215.76021333L661.96366222 612.94364445v64.72817777l215.76021333-86.30385777v-64.72817778z m0-215.76135111l-215.76021333 86.30385777v64.72817778l215.76021333-86.30385778v-64.72817777z m-388.6023111 584.26026667L100.98346667 742.4V73.54026667l388.37020444 151.03203555-0.23210666 670.56526223zM381.47413333 397.18115555l-215.76135111-86.30385777v64.72817777l215.76135111 86.30272v-64.72817777z m0 215.76135112l-215.76135111-86.30385778v64.72817778l215.76135111 86.30499555v-64.72931555z" p-id="4426"></path></svg>