<?xml version="1.0" standalone="no"?><!DOCTYPE svg PUBLIC "-//W3C//DTD SVG 1.1//EN" "http://www.w3.org/Graphics/SVG/1.1/DTD/svg11.dtd"><svg t="1590548914355" class="icon" viewBox="0 0 1024 1024" version="1.1" xmlns="http://www.w3.org/2000/svg" p-id="2100" xmlns:xlink="http://www.w3.org/1999/xlink" width="128" height="128"><defs><style type="text/css"></style></defs><path d="M157.248 603.456c7.296 21.888 21.952 36.544 43.904 36.544s36.544-14.656 43.904-36.544l29.248-402.304C274.304 157.248 237.696 128 201.152 128 157.248 128 128 164.544 128 208.448l29.248 395.008z m43.904 109.696C157.248 713.152 128 742.4 128 786.304c0 43.84 29.248 73.152 73.152 73.152 43.904 0 73.152-29.312 73.152-73.152 0-43.904-29.248-73.152-73.152-73.152zM486.4 603.456c7.296 21.888 21.952 36.544 43.904 36.544s36.544-14.656 43.84-36.544l29.312-402.304C603.456 157.248 566.848 128 530.304 128c-43.904 0-73.152 36.544-73.152 80.448L486.4 603.52z m43.904 109.696c-43.904 0-73.152 29.248-73.152 73.152 0 43.84 29.248 73.152 73.152 73.152 43.84 0 73.152-29.312 73.152-73.152 0-43.904-29.312-73.152-73.152-73.152zM806.4 603.456c7.296 21.888 21.952 36.544 43.904 36.544s36.544-14.656 43.84-36.544l29.312-402.304c0-43.904-36.608-73.152-73.152-73.152-43.904 0-73.152 36.544-73.152 80.448L806.4 603.52z m43.904 109.696c-43.904 0-73.152 29.248-73.152 73.152 0 43.84 29.248 73.152 73.152 73.152 43.84 0 73.152-29.312 73.152-73.152 0-43.904-29.312-73.152-73.152-73.152z" fill="#F54A45" p-id="2101"></path></svg>